<svg id="far-art-portfolio.netlify.app" xmlns="http://www.w3.org/2000/svg" xmlns:xlink="http://www.w3.org/1999/xlink" width="1068.95" height="1181.91" viewBox="0 0 1068.95 1181.91"><defs><style>.cls-1{fill:url(#New_Gradient_Swatch_1);}.cls-2{fill:#fff;}</style><linearGradient id="New_Gradient_Swatch_1" x1="208.42" y1="1009.55" x2="1023.85" y2="194.12" gradientUnits="userSpaceOnUse"><stop offset="0" stop-color="#00d2ea"/><stop offset="0.45" stop-color="#736cd7"/><stop offset="0.54" stop-color="#736cd7"/><stop offset="0.76" stop-color="#aa3bcd"/><stop offset="1" stop-color="#e10bc4"/></linearGradient></defs><path class="cls-1" d="M81.66,391.05V812.62a169.39,169.39,0,0,0,84.69,146.7L531.44,1170.1a169.38,169.38,0,0,0,169.39,0l365.09-210.78a169.39,169.39,0,0,0,84.69-146.7V391.05a169.38,169.38,0,0,0-84.69-146.69L700.83,33.58a169.38,169.38,0,0,0-169.39,0L166.35,244.36A169.38,169.38,0,0,0,81.66,391.05Z" transform="translate(-81.66 -10.88)"/><path class="cls-2" d="M991.86,465.34A136.14,136.14,0,1,0,1128,601.48,136.14,136.14,0,0,0,991.86,465.34Zm-20,177.49L956.05,658.9l-68.52-57.75,68.52-57.64,15.86,16.06L921.49,601Zm55.31,16.07-15.76-16.07,50.33-41.47-50.33-41.79,15.76-16.06,68.52,57.64ZM991.86,769.25c35.15,212.13-272.54,8.34-373.6-109.07C491.54,791.63,404.37,852.35,243.94,858c-23.27-166.71,96.92-12.47,312.38-257.86C310,343.26,225.5,518,243.93,342.09c132.84-1.22,256.5,64.66,374.33,197.87q165.47-201.57,369-201.6C1032.1,509,877.68,350.45,685.13,600,810.21,713.27,857.73,760.51,991.86,769.25ZM380.08,606.65A136.14,136.14,0,1,0,243.93,742.79,136.14,136.14,0,0,0,380.08,606.65ZM263.53,517.23h4.79q14.74,0,22.77,3.36a21.63,21.63,0,0,1,11.62,11q3.6,7.65,3.6,24.71,0,19.56,1.42,24.63a24,24,0,0,0,5.07,9.26q3.65,4.2,13.7,4.57V616.9q-10,.11-15.12,6t-5.07,26.19q0,15.67-1.11,23.19a24,24,0,0,1-5.54,12.59,25,25,0,0,1-11.43,7.33q-7,2.26-19.82,2.26h-5.78V672.41c9.42,0,14.66-.9,16.6-2.68s3-5.42,3.09-10.89q.56-23.62,1.71-30.31A36.06,36.06,0,0,1,288.65,616q3.45-5.82,10.93-10.15-7.93-5.16-11.08-10.15a31,31,0,0,1-4.24-10.84q-1.11-5.86-1.66-21.79t-1.29-18.22a7.41,7.41,0,0,0-3.56-4c-1.88-1.11-6.66-1.66-14.22-1.66Zm-40.49,22c-8.61,0-13.95.92-15.7,2.77s-2.69,5.44-2.82,10.79Q204,575,203.09,581.6A37.32,37.32,0,0,1,199,594.29q-3.18,6-11.85,11.58,8.2,5,11.94,11.91t4.39,19.93l1.38,26.86a8.79,8.79,0,0,0,4,5.85c2.08,1.33,15.07,2,15.07,2v22.05h-4.86q-15,0-23.1-3.37a21.82,21.82,0,0,1-11.79-11q-3.65-7.65-3.64-24.71,0-18.81-1.32-24.07a23.3,23.3,0,0,0-5-9.63q-3.75-4.38-14.12-4.76V594.78q10.19-.09,15.33-5.95t5.15-26.33q0-15.57,1.16-23.09a24.27,24.27,0,0,1,5.67-12.6A25.35,25.35,0,0,1,199,519.49q7.11-2.26,20.11-2.26h4Z" transform="translate(-81.66 -10.88)"/></svg>