<svg id="far-art-portfolio.netlify.app" xmlns="http://www.w3.org/2000/svg" xmlns:xlink="http://www.w3.org/1999/xlink" width="1068.95" height="1181.91" viewBox="0 0 1068.95 1181.91"><defs><style>.cls-1{fill:url(#New_Gradient_Swatch_1);}.cls-2{fill:#fff;}</style><linearGradient id="New_Gradient_Swatch_1" x1="208.42" y1="1009.55" x2="1023.85" y2="194.12" gradientUnits="userSpaceOnUse"><stop offset="0" stop-color="#137adb"/><stop offset="0.45" stop-color="#736cd7"/><stop offset="0.54" stop-color="#5f51a8"/><stop offset="0.76" stop-color="#b7206d"/><stop offset="1" stop-color="#e10a51"/></linearGradient></defs><path class="cls-1" d="M81.66,391.05V812.62a169.39,169.39,0,0,0,84.69,146.7L531.44,1170.1a169.38,169.38,0,0,0,169.39,0l365.09-210.78a169.39,169.39,0,0,0,84.69-146.7V391.05a169.38,169.38,0,0,0-84.69-146.69L700.83,33.58a169.38,169.38,0,0,0-169.39,0L166.35,244.36A169.38,169.38,0,0,0,81.66,391.05Z" transform="translate(-81.66 -10.88)"/><path class="cls-2" d="M997.86,467.34A136.14,136.14,0,1,0,1134,603.48,136.14,136.14,0,0,0,997.86,467.34Zm0,303.91c35.15,212.13-272.54,8.34-373.6-109.07C497.54,793.63,410.37,854.35,249.94,860c-23.27-166.71,96.92-12.47,312.38-257.86C316,345.26,231.5,520,249.93,344.09c132.84-1.22,256.5,64.66,374.33,197.87q165.47-201.57,369-201.6C1038.1,511,883.68,352.45,691.13,602,816.21,715.27,863.73,762.51,997.86,771.25ZM386.08,608.65A136.14,136.14,0,1,0,249.93,744.79,136.14,136.14,0,0,0,386.08,608.65Z" transform="translate(-81.66 -10.88)"/></svg>