<svg id="far-art-portfolio.netlify.app" xmlns="http://www.w3.org/2000/svg" xmlns:xlink="http://www.w3.org/1999/xlink" width="1134" height="484.71" viewBox="0 0 1134 484.71"><defs><style>.cls-1{fill:url(#linear-gradient);}</style><linearGradient id="linear-gradient" x1="265.54" y1="936.7" x2="930.17" y2="272.07" gradientUnits="userSpaceOnUse"><stop offset="0" stop-color="#137adb"/><stop offset="1" stop-color="#e10a51"/></linearGradient></defs><path class="cls-1" d="M1019,837.44a3.51,3.51,0,0,1-3.48,3.51h-1.87c-148.26,0-262.85-46-382-169.75h0a45.16,45.16,0,0,1,65.26-4c96,89,185.85,134.88,316.72,134.88h1.83a3.5,3.5,0,0,1,3.52,3.5ZM169,405.35a7.92,7.92,0,0,0,7.64,7.92h0c124.11,0,209.41,19.51,329.43,131a44.52,44.52,0,0,0,64.17-3.62h0C433.29,402.66,329.8,373.1,176.64,373.1h0a7.64,7.64,0,0,0-7.64,7.64ZM633.84,605.08l1.27-1.52.36-.45h0c139.37-168.09,218.6-205.4,380-205.4h0a3.52,3.52,0,0,0,3.52-3.52V362.35a3.5,3.5,0,0,0-3.48-3.5h-1.87c-167.12,0-269.66,51.67-413.27,210.44l-24.14,28c-1.26,1.46-2.5,3-3.67,4.48s-3.66,4.48-3.53,4.62C441.24,758,336.84,804.67,176.64,804.67h-1.8a5.81,5.81,0,0,0-5.84,5.81v27.29a5.78,5.78,0,0,0,5.78,5.79h.06c190,0,321-77.08,427-199.24l32.05-39.22Zm533.06-1.34c-.05,82.27-69,151.17-151.21,151.23A151.33,151.33,0,0,1,864.24,603.54c.06-82.25,69-151.15,151.2-151.22A151.34,151.34,0,0,1,1166.9,603.74Zm-229.55-.68,56-46-17.63-17.85-76.16,64.07,76.16,64.19,17.63-17.86Zm193.69.22-76.16-64.07-17.52,17.85,55.94,46.45-55.94,46.1,17.52,17.86ZM184.34,760.72A151.33,151.33,0,0,1,32.9,609.29C33,527,101.85,458.12,184.12,458.07A151.33,151.33,0,0,1,335.55,609.51C335.49,691.76,266.59,760.66,184.34,760.72ZM206,534.46c8.41,0,13.72.62,15.81,1.85a8.18,8.18,0,0,1,3.95,4.41q.83,2.56,1.44,20.26T229,585.19a34.48,34.48,0,0,0,4.72,12q3.5,5.53,12.31,11.29-8.31,4.82-12.15,11.28a40.14,40.14,0,0,0-5.13,13.9q-1.29,7.44-1.9,33.7-.21,9.12-3.44,12.1c-2.15,2-8,3-18.45,3V707h6.42c9.49,0,16.85-.84,22-2.52a27.62,27.62,0,0,0,12.71-8.14,26.62,26.62,0,0,0,6.16-14q1.23-8.36,1.23-25.77,0-22.56,5.63-29.12T276,620.79V596.2q-11.17-.42-15.23-5.08a26.49,26.49,0,0,1-5.63-10.3q-1.59-5.62-1.59-27.37,0-19-4-27.46a24,24,0,0,0-12.92-12.25q-8.9-3.75-25.31-3.74H206ZM161,510h-4.41q-14.44,0-22.35,2.51a28.23,28.23,0,0,0-12.89,8.14,26.91,26.91,0,0,0-6.29,14q-1.29,8.36-1.3,25.67,0,22.75-5.71,29.27T91,596.2v24.59q11.53.42,15.7,5.29a26,26,0,0,1,5.6,10.71q1.45,5.84,1.46,26.75,0,19,4.06,27.46a24.15,24.15,0,0,0,13.1,12.25q9,3.75,25.67,3.75H162V682.49s-14.44-.74-16.76-2.21a9.79,9.79,0,0,1-4.42-6.51l-1.53-29.85q-.72-14.48-4.88-22.16t-13.28-13.23q9.65-6.16,13.18-12.88a41.77,41.77,0,0,0,4.51-14.1q1-7.39,1.59-32,.21-8.92,3.13-12c2-2,7.88-3.08,17.46-3.08Z" transform="translate(-32.9 -358.84)"/></svg>